<svg xmlns="http://www.w3.org/2000/svg" viewBox="0 0 64 64" role="img" aria-label="Calculus Prep icon">
  <defs>
    <linearGradient id="bg" x1="0%" y1="0%" x2="100%" y2="100%">
      <stop offset="0%" stop-color="#ffd7c2" />
      <stop offset="100%" stop-color="#ffc6de" />
    </linearGradient>
  </defs>
  <rect width="64" height="64" rx="18" fill="url(#bg)" />
  <circle cx="22" cy="23" r="4" fill="#fff7fb" />
  <circle cx="42" cy="18" r="3" fill="#fff7fb" />
  <path
    d="M36 14c-8 1-12 7-12 16 0 9 4 17 12 20"
    fill="none"
    stroke="#7b3f98"
    stroke-linecap="round"
    stroke-width="6"
  />
  <path
    d="M17 34h26"
    fill="none"
    stroke="#7b3f98"
    stroke-linecap="round"
    stroke-width="5"
  />
  <path
    d="M44 38c3 0 5 2 5 5s-2 6-8 10c-6-4-8-7-8-10s2-5 5-5c2 0 3 1 4 2 1-1 2-2 4-2z"
    fill="#fff7fb"
  />
</svg>
